<svg width="54" height="49" viewBox="0 0 54 49" fill="none" xmlns="http://www.w3.org/2000/svg">
<rect width="54" height="49" fill="#BBFAC4"/>
<path d="M11 34.0513C11 36.2295 13.0234 38 15.5128 38H38.4872C40.9766 38 43 36.2295 43 34.0513V19.3333H11V34.0513ZM27 30.1026H33.5641C34.2435 30.1026 34.7949 30.585 34.7949 31.1795C34.7949 31.7739 34.2435 32.2564 33.5641 32.2564H27C26.3206 32.2564 25.7692 31.7739 25.7692 31.1795C25.7692 30.585 26.3206 30.1026 27 30.1026ZM19.5662 26.1969C19.0853 25.7762 19.0853 25.0942 19.5662 24.6734C20.047 24.2527 20.8265 24.2527 21.3073 24.6734L24.5893 27.5452C25.0702 27.9659 25.0702 28.648 24.5893 29.0687L21.3073 31.9405C21.0677 32.1502 20.7526 32.2564 20.4375 32.2564C20.1225 32.2564 19.8074 32.1516 19.5678 31.9405C19.087 31.5198 19.087 30.8377 19.5678 30.417L21.9801 28.3063L19.5678 26.1955L19.5662 26.1969ZM38.4872 10H15.5128C13.0234 10 11 11.7705 11 13.9487V17.1795H43V13.9487C43 11.7705 40.9766 10 38.4872 10ZM17.1538 15.0256H15.5128C14.8334 15.0256 14.2821 14.5432 14.2821 13.9487C14.2821 13.3543 14.8334 12.8718 15.5128 12.8718H17.1538C17.8332 12.8718 18.3846 13.3543 18.3846 13.9487C18.3846 14.5432 17.8332 15.0256 17.1538 15.0256ZM23.7179 15.0256H22.0769C21.3975 15.0256 20.8462 14.5432 20.8462 13.9487C20.8462 13.3543 21.3975 12.8718 22.0769 12.8718H23.7179C24.3973 12.8718 24.9487 13.3543 24.9487 13.9487C24.9487 14.5432 24.3973 15.0256 23.7179 15.0256Z" fill="#081030"/>
</svg>
