<svg width="512" height="512" viewBox="0 0 512 512" fill="none" xmlns="http://www.w3.org/2000/svg">
<rect width="512" height="512" fill="#C0D7BC"/>
<path d="M363.147 139H109.442C99.8091 139 92 146.71 92 156.221V312.779C92 322.29 99.8091 330 109.442 330H363.147C372.78 330 380.589 322.29 380.589 312.779V156.221C380.589 146.71 372.78 139 363.147 139Z" fill="#112953"/>
<path d="M380.589 185.325V158.599C380.582 153.403 378.742 148.423 375.473 144.749C372.203 141.075 367.77 139.008 363.147 139H109.442C104.818 139.008 100.386 141.075 97.1161 144.749C93.8465 148.423 92.0067 153.403 92 158.599V185.325H380.589Z" fill="#112953"/>
<path d="M320.304 167.151H312.525C310.978 167.151 309.494 166.588 308.4 165.586C307.306 164.583 306.691 163.224 306.691 161.806C306.691 160.388 307.306 159.029 308.4 158.026C309.494 157.024 310.978 156.461 312.525 156.461H320.304C321.851 156.461 323.335 157.024 324.429 158.026C325.523 159.029 326.138 160.388 326.138 161.806C326.138 163.224 325.523 164.583 324.429 165.586C323.335 166.588 321.851 167.151 320.304 167.151ZM351.419 167.151H343.64C342.093 167.151 340.609 166.588 339.515 165.586C338.421 164.583 337.806 163.224 337.806 161.806C337.806 160.388 338.421 159.029 339.515 158.026C340.609 157.024 342.093 156.461 343.64 156.461H351.419C352.966 156.461 354.45 157.024 355.544 158.026C356.638 159.029 357.253 160.388 357.253 161.806C357.253 163.224 356.638 164.583 355.544 165.586C354.45 166.588 352.966 167.151 351.419 167.151Z" fill="#C0D7BC"/>
<path d="M226.544 307.079C215.716 307.079 204.889 302.404 196.633 293.023C180.149 274.291 180.149 243.78 196.633 225.049C213.118 206.317 239.97 206.317 256.454 225.049C264.439 234.122 268.851 246.21 268.851 259.036C268.851 271.862 264.439 283.949 256.454 293.023C248.198 302.373 237.371 307.079 226.544 307.079ZM226.544 217.113C216.691 217.113 207.434 221.481 200.45 229.385C186.077 245.718 186.077 272.323 200.45 288.655C207.406 296.56 216.691 300.927 226.544 300.927C236.396 300.927 245.654 296.56 252.637 288.655C259.594 280.75 263.438 270.201 263.438 259.005C263.438 247.809 259.594 237.29 252.637 229.355C245.654 221.481 236.396 217.113 226.544 217.113Z" fill="#C0D7BC"/>
<path d="M278.65 329.901C275.916 329.901 273.318 328.671 271.396 326.487L253.855 306.556C252.8 305.357 252.8 303.419 253.855 302.219L264.547 290.07C265.576 288.901 267.363 288.901 268.364 290.07L285.904 310.001C287.853 312.215 288.909 315.137 288.909 318.244C288.909 321.35 287.826 324.303 285.904 326.487C283.955 328.702 281.384 329.901 278.65 329.901ZM259.567 304.372L275.185 322.119C277.026 324.211 280.22 324.211 282.061 322.119C282.981 321.074 283.495 319.69 283.495 318.213C283.495 316.737 282.981 315.353 282.061 314.307L266.442 296.56L259.567 304.372Z" fill="#C0D7BC"/>
</svg>
