<svg width="64" height="64" viewBox="0 0 64 64" fill="none" xmlns="http://www.w3.org/2000/svg">
<rect width="64" height="64" fill="#8FECF5"/>
<path d="M44.8592 20.9538L39.4425 15.1913C39.3919 15.1316 39.33 15.0838 39.261 15.0511C39.192 15.0183 39.1173 15.0013 39.0417 15.0011H23.8208C23.4212 14.9855 23.032 15.1383 22.7378 15.4265C22.4436 15.7146 22.2683 16.1147 22.25 16.5397V43.4276C22.2683 43.8526 22.4436 44.2527 22.7378 44.5408C23.032 44.829 23.4212 44.9818 23.8208 44.9662H43.4292C43.764 44.9721 44.0917 44.8632 44.3638 44.6557C44.636 44.4481 44.8381 44.1529 44.9404 43.8137C44.9752 43.7421 44.9955 43.6636 45 43.5832V21.3399C44.9997 21.197 44.9495 21.0595 44.8592 20.9538ZM39.5833 16.9661L43.1529 20.7636H40.125C39.9927 20.7648 39.8647 20.7145 39.7649 20.6221C39.6651 20.5298 39.6005 20.4018 39.5833 20.2623V16.9661ZM43.9167 43.4276C43.9167 43.6351 43.6892 43.8137 43.4292 43.8137H23.8208C23.5608 43.8137 23.3333 43.6351 23.3333 43.4276V16.5397C23.3333 16.3322 23.5608 16.1536 23.8208 16.1536H38.5V20.2623C38.5099 20.7106 38.6866 21.1365 38.9912 21.4465C39.2958 21.7565 39.7035 21.9254 40.125 21.9161H43.9167V43.4276Z" fill="#081030"/>
<path opacity="0.5" d="M39.5834 44.9662V47.2712C39.5834 47.4241 39.5263 47.5706 39.4247 47.6787C39.3231 47.7868 39.1854 47.8475 39.0417 47.8475H20.625C20.4814 47.8475 20.3436 47.7868 20.242 47.6787C20.1404 47.5706 20.0834 47.4241 20.0834 47.2712V20.7636C20.0834 20.6108 20.1404 20.4642 20.242 20.3562C20.3436 20.2481 20.4814 20.1874 20.625 20.1874H22.25V43.4276C22.2683 43.8526 22.4436 44.2527 22.7378 44.5408C23.032 44.829 23.4213 44.9819 23.8209 44.9662H39.5834Z" fill="#081030"/>
<path d="M40.6667 44.39V47.2713C40.6667 47.7298 40.4955 48.1695 40.1907 48.4937C39.886 48.8179 39.4726 49 39.0417 49H20.625C20.194 49 19.7807 48.8179 19.476 48.4937C19.1712 48.1695 19 47.7298 19 47.2713V20.7637C19 20.3052 19.1712 19.8655 19.476 19.5413C19.7807 19.217 20.194 19.0349 20.625 19.0349H22.7917C22.9353 19.0349 23.0731 19.0956 23.1747 19.2037C23.2763 19.3118 23.3333 19.4583 23.3333 19.6112C23.3333 19.764 23.2763 19.9106 23.1747 20.0186C23.0731 20.1267 22.9353 20.1874 22.7917 20.1874H20.625C20.4813 20.1874 20.3436 20.2481 20.242 20.3562C20.1404 20.4643 20.0833 20.6108 20.0833 20.7637V47.2713C20.0833 47.4241 20.1404 47.5707 20.242 47.6787C20.3436 47.7868 20.4813 47.8475 20.625 47.8475H39.0417C39.1853 47.8475 39.3231 47.7868 39.4247 47.6787C39.5263 47.5707 39.5833 47.4241 39.5833 47.2713V44.39C39.5833 44.2372 39.6404 44.0906 39.742 43.9825C39.8436 43.8745 39.9813 43.8138 40.125 43.8138C40.2687 43.8138 40.4064 43.8745 40.508 43.9825C40.6096 44.0906 40.6667 44.2372 40.6667 44.39Z" fill="#081030"/>
</svg>
