<svg width="246" height="266" viewBox="0 0 246 266" fill="none" xmlns="http://www.w3.org/2000/svg">
<rect width="246" height="266" fill="#B8B8FD"/>
<path d="M78.7969 33.25H57.6562C42.7963 33.25 30.75 46.2757 30.75 62.3438V122.609C30.75 138.677 42.7963 151.703 57.6562 151.703H78.7969C93.6568 151.703 105.703 138.677 105.703 122.609V62.3438C105.703 46.2757 93.6568 33.25 78.7969 33.25Z" fill="black" stroke="black" stroke-width="7"/>
<path d="M165.281 232.75H186.422C201.282 232.75 213.328 219.724 213.328 203.656V143.391C213.328 127.323 201.282 114.297 186.422 114.297H165.281C150.421 114.297 138.375 127.323 138.375 143.391V203.656C138.375 219.724 150.421 232.75 165.281 232.75Z" fill="black" stroke="black" stroke-width="7"/>
<path d="M85.5234 189.109H50.9297C39.7848 189.109 30.75 198.879 30.75 210.93C30.75 222.981 39.7848 232.75 50.9297 232.75H85.5234C96.6684 232.75 105.703 222.981 105.703 210.93C105.703 198.879 96.6684 189.109 85.5234 189.109Z" fill="black" stroke="black" stroke-width="7"/>
<path d="M158.555 76.8906L193.148 76.8906C204.293 76.8906 213.328 67.1213 213.328 55.0703C213.328 43.0193 204.293 33.25 193.148 33.25L158.555 33.25C147.41 33.25 138.375 43.0193 138.375 55.0703C138.375 67.1213 147.41 76.8906 158.555 76.8906Z" fill="black" stroke="black" stroke-width="7"/>
</svg>
