<svg width="57" height="61" viewBox="0 0 57 61" fill="none" xmlns="http://www.w3.org/2000/svg">
<rect width="57" height="61" fill="#E9BDE1"/>
<path d="M33.8438 12.8672V19.5391C33.8438 20.3287 34.4418 20.9688 35.1797 20.9688H41.4141" stroke="#081030" stroke-width="5"/>
<path d="M15.5859 25.9727V16.6797C15.5859 14.3109 17.3803 12.3906 19.5938 12.3906H32.9881C33.804 12.3906 34.5875 12.733 35.1702 13.3443L39.2102 17.5823L40.5788 19.1562C41.1157 19.7736 41.4141 20.5855 41.4141 21.4288V44.3203C41.4141 46.6891 39.6197 48.6094 37.4062 48.6094H19.5938C17.3803 48.6094 15.5859 46.6891 15.5859 44.3203V42.8906" stroke="#081030" stroke-width="5" stroke-linecap="round"/>
<path d="M16.3875 35.9709V31.2434C16.3875 31.1227 16.4439 31.0592 16.5567 31.0528H17.8748C18.0351 31.0528 18.1153 31.1354 18.1153 31.3006V35.9709C18.1153 36.2823 18.0559 36.5746 17.9372 36.8478C17.8244 37.121 17.667 37.3625 17.4651 37.5721C17.2692 37.7755 17.0376 37.9375 16.7704 38.0582C16.5092 38.1726 16.2331 38.2298 15.9422 38.2298C15.5918 38.2298 15.2623 38.1504 14.9536 37.9915C14.6448 37.8263 14.3925 37.5881 14.1965 37.2767C14.1906 37.2703 14.1876 37.2449 14.1876 37.2004C14.1876 37.1115 14.2114 37.0511 14.2589 37.0193L15.0337 36.2378C15.0574 36.2187 15.0812 36.2028 15.105 36.1901C15.1287 36.171 15.1554 36.1615 15.1851 36.1615C15.2267 36.1615 15.2683 36.1806 15.3098 36.2187C15.3514 36.2505 15.3959 36.2886 15.4434 36.3331C15.4909 36.3776 15.5473 36.4189 15.6126 36.457C15.6779 36.4888 15.7581 36.5046 15.8531 36.5046C15.9897 36.5046 16.1114 36.4538 16.2182 36.3521C16.331 36.2442 16.3875 36.1171 16.3875 35.9709ZM20.383 35.847C20.4365 35.8915 20.5018 35.9518 20.579 36.0281C20.6561 36.098 20.7452 36.1711 20.8462 36.2473C20.9946 36.3553 21.143 36.4411 21.2915 36.5046C21.4459 36.5618 21.6032 36.5904 21.7635 36.5904C22.0722 36.5904 22.2801 36.5237 22.3869 36.3903C22.4997 36.2568 22.5562 36.1012 22.5562 35.9232C22.5562 35.8216 22.5205 35.7326 22.4493 35.6564C22.378 35.5801 22.292 35.5134 22.191 35.4562C22.096 35.3927 21.9921 35.3418 21.8793 35.3037C21.7724 35.2592 21.6774 35.2211 21.5943 35.1893C20.8759 34.9225 20.3385 34.6079 19.9823 34.2457C19.6319 33.8836 19.4568 33.4229 19.4568 32.8637C19.4568 32.5651 19.5132 32.295 19.626 32.0536C19.7388 31.8121 19.8962 31.6056 20.098 31.434C20.3059 31.2625 20.5552 31.1322 20.8462 31.0432C21.1371 30.9479 21.4607 30.9003 21.8169 30.9003C22.0841 30.9003 22.3424 30.9321 22.5918 30.9956C22.8471 31.0592 23.0935 31.164 23.331 31.3101C23.5329 31.4372 23.708 31.5675 23.8565 31.7009C24.0049 31.8343 24.0791 31.9456 24.0791 32.0345C24.0791 32.0917 24.0405 32.1679 23.9633 32.2632L23.2776 33.0448C23.23 33.0956 23.1796 33.1211 23.1262 33.1211C23.0846 33.1211 23.046 33.1084 23.0104 33.0829C22.9807 33.0575 22.945 33.0257 22.9035 32.9876L22.859 32.9495C22.7402 32.8415 22.5948 32.7367 22.4226 32.635C22.2563 32.527 22.0782 32.4729 21.8882 32.4729C21.6923 32.4729 21.523 32.5079 21.3805 32.5778C21.238 32.6477 21.1668 32.7748 21.1668 32.959C21.1668 33.137 21.2499 33.2735 21.4162 33.3689C21.5824 33.4642 21.8288 33.569 22.1554 33.6834C22.4701 33.7978 22.761 33.9153 23.0282 34.0361C23.2954 34.1568 23.524 34.3029 23.714 34.4745C23.9099 34.6397 24.0613 34.8399 24.1682 35.075C24.2751 35.3037 24.3285 35.5833 24.3285 35.9137C24.3285 36.2632 24.2602 36.5809 24.1237 36.8668C23.993 37.1464 23.8119 37.3879 23.5804 37.5912C23.3488 37.7882 23.0757 37.9439 22.761 38.0582C22.4463 38.1663 22.1079 38.2203 21.7457 38.2203C21.5141 38.2203 21.2855 38.1885 21.0599 38.125C20.8343 38.0614 20.6146 37.9757 20.4008 37.8676C20.193 37.7596 19.9971 37.6325 19.813 37.4864C19.629 37.3402 19.4657 37.1814 19.3232 37.0098L19.3054 37.0003C19.2995 36.9876 19.2935 36.9812 19.2876 36.9812C19.2816 36.9749 19.2757 36.9685 19.2698 36.9621C19.2044 36.8859 19.1718 36.8224 19.1718 36.7715C19.1718 36.7207 19.2044 36.6603 19.2698 36.5904L20.0446 35.7993C20.104 35.7549 20.1545 35.7326 20.196 35.7326C20.2435 35.7326 20.3059 35.7707 20.383 35.847ZM26.8156 34.5889C26.8156 34.8557 26.8571 35.1036 26.9403 35.3323C27.0234 35.5611 27.1392 35.7612 27.2876 35.9328C27.436 36.098 27.6142 36.2314 27.822 36.3331C28.0298 36.4284 28.2554 36.4761 28.4989 36.4761C28.7423 36.4761 28.9679 36.4284 29.1757 36.3331C29.3836 36.2314 29.5617 36.098 29.7101 35.9328C29.8585 35.7612 29.9743 35.5611 30.0574 35.3323C30.1406 35.1036 30.1821 34.8557 30.1821 34.5889C30.1821 34.3284 30.1406 34.0837 30.0574 33.855C29.9743 33.6262 29.8585 33.4261 29.7101 33.2545C29.5617 33.0829 29.3836 32.9495 29.1757 32.8542C28.9679 32.7525 28.7423 32.7017 28.4989 32.7017C28.2554 32.7017 28.0298 32.7525 27.822 32.8542C27.6142 32.9495 27.436 33.0829 27.2876 33.2545C27.1392 33.4261 27.0234 33.6262 26.9403 33.855C26.8571 34.0837 26.8156 34.3284 26.8156 34.5889ZM25.0967 34.5984C25.0967 34.0901 25.1857 33.6167 25.3639 33.1782C25.542 32.7335 25.7824 32.3459 26.0853 32.0154C26.394 31.685 26.7562 31.4245 27.1718 31.2339C27.5874 31.0432 28.0298 30.9479 28.4989 30.9479C28.9679 30.9479 29.4073 31.0432 29.817 31.2339C30.2326 31.4245 30.5948 31.685 30.9035 32.0154C31.2123 32.3459 31.4557 32.7335 31.6339 33.1782C31.812 33.6167 31.901 34.0901 31.901 34.5984C31.901 35.1004 31.812 35.5738 31.6339 36.0186C31.4557 36.457 31.2123 36.8414 30.9035 37.1718C30.5948 37.4959 30.2326 37.7532 29.817 37.9439C29.4073 38.1345 28.9679 38.2298 28.4989 38.2298C28.0298 38.2298 27.5874 38.1345 27.1718 37.9439C26.7562 37.7532 26.394 37.4959 26.0853 37.1718C25.7824 36.8414 25.542 36.457 25.3639 36.0186C25.1857 35.5738 25.0967 35.1004 25.0967 34.5984ZM36.9915 37.9153L34.6492 33.7978V37.9153C34.6492 38.0551 34.5779 38.125 34.4354 38.125H33.1885C33.0638 38.125 33.0015 38.0551 33.0015 37.9153V31.2625C33.0015 31.2053 33.0164 31.1576 33.046 31.1195C33.0757 31.075 33.1232 31.0528 33.1885 31.0528H34.6313C34.762 31.0528 34.8689 31.1227 34.952 31.2625L37.1785 35.1226V31.2625C37.1785 31.2053 37.1963 31.1576 37.232 31.1195C37.2676 31.075 37.3181 31.0528 37.3834 31.0528H38.6213C38.6689 31.0528 38.7164 31.0718 38.7638 31.11C38.8114 31.1481 38.8351 31.1989 38.8351 31.2625V37.9153C38.8351 38.0551 38.7638 38.125 38.6213 38.125H37.3121C37.1756 38.125 37.0687 38.0551 36.9915 37.9153Z" fill="#081030"/>
<path d="M16.3875 35.9709V31.2434C16.3875 31.1227 16.4439 31.0592 16.5567 31.0528H17.8748C18.0351 31.0528 18.1153 31.1354 18.1153 31.3006V35.9709C18.1153 36.2823 18.0559 36.5746 17.9372 36.8478C17.8244 37.121 17.667 37.3625 17.4651 37.5721C17.2692 37.7755 17.0376 37.9375 16.7704 38.0582C16.5092 38.1726 16.2331 38.2298 15.9422 38.2298C15.5918 38.2298 15.2623 38.1504 14.9536 37.9915C14.6448 37.8263 14.3925 37.5881 14.1965 37.2767C14.1906 37.2703 14.1876 37.2449 14.1876 37.2004C14.1876 37.1115 14.2114 37.0511 14.2589 37.0193L15.0337 36.2378C15.0574 36.2187 15.0812 36.2028 15.105 36.1901C15.1287 36.171 15.1554 36.1615 15.1851 36.1615C15.2267 36.1615 15.2683 36.1806 15.3098 36.2187C15.3514 36.2505 15.3959 36.2886 15.4434 36.3331C15.4909 36.3776 15.5473 36.4189 15.6126 36.457C15.6779 36.4888 15.7581 36.5046 15.8531 36.5046C15.9897 36.5046 16.1114 36.4538 16.2182 36.3521C16.331 36.2442 16.3875 36.1171 16.3875 35.9709ZM20.383 35.847C20.4365 35.8915 20.5018 35.9518 20.579 36.0281C20.6561 36.098 20.7452 36.1711 20.8462 36.2473C20.9946 36.3553 21.143 36.4411 21.2915 36.5046C21.4459 36.5618 21.6032 36.5904 21.7635 36.5904C22.0722 36.5904 22.2801 36.5237 22.3869 36.3903C22.4997 36.2568 22.5562 36.1012 22.5562 35.9232C22.5562 35.8216 22.5205 35.7326 22.4493 35.6564C22.378 35.5801 22.292 35.5134 22.191 35.4562C22.096 35.3927 21.9921 35.3418 21.8793 35.3037C21.7724 35.2592 21.6774 35.2211 21.5943 35.1893C20.8759 34.9225 20.3385 34.6079 19.9823 34.2457C19.6319 33.8836 19.4568 33.4229 19.4568 32.8637C19.4568 32.5651 19.5132 32.295 19.626 32.0536C19.7388 31.8121 19.8962 31.6056 20.098 31.434C20.3059 31.2625 20.5552 31.1322 20.8462 31.0432C21.1371 30.9479 21.4607 30.9003 21.8169 30.9003C22.0841 30.9003 22.3424 30.9321 22.5918 30.9956C22.8471 31.0592 23.0935 31.164 23.331 31.3101C23.5329 31.4372 23.708 31.5675 23.8565 31.7009C24.0049 31.8343 24.0791 31.9456 24.0791 32.0345C24.0791 32.0917 24.0405 32.1679 23.9633 32.2632L23.2776 33.0448C23.23 33.0956 23.1796 33.1211 23.1262 33.1211C23.0846 33.1211 23.046 33.1084 23.0104 33.0829C22.9807 33.0575 22.945 33.0257 22.9035 32.9876L22.859 32.9495C22.7402 32.8415 22.5948 32.7367 22.4226 32.635C22.2563 32.527 22.0782 32.4729 21.8882 32.4729C21.6923 32.4729 21.523 32.5079 21.3805 32.5778C21.238 32.6477 21.1668 32.7748 21.1668 32.959C21.1668 33.137 21.2499 33.2735 21.4162 33.3689C21.5824 33.4642 21.8288 33.569 22.1554 33.6834C22.4701 33.7978 22.761 33.9153 23.0282 34.0361C23.2954 34.1568 23.524 34.3029 23.714 34.4745C23.9099 34.6397 24.0613 34.8399 24.1682 35.075C24.2751 35.3037 24.3285 35.5833 24.3285 35.9137C24.3285 36.2632 24.2602 36.5809 24.1237 36.8668C23.993 37.1464 23.8119 37.3879 23.5804 37.5912C23.3488 37.7882 23.0757 37.9439 22.761 38.0582C22.4463 38.1663 22.1079 38.2203 21.7457 38.2203C21.5141 38.2203 21.2855 38.1885 21.0599 38.125C20.8343 38.0614 20.6146 37.9757 20.4008 37.8676C20.193 37.7596 19.9971 37.6325 19.813 37.4864C19.629 37.3402 19.4657 37.1814 19.3232 37.0098L19.3054 37.0003C19.2995 36.9876 19.2935 36.9812 19.2876 36.9812C19.2816 36.9749 19.2757 36.9685 19.2698 36.9621C19.2044 36.8859 19.1718 36.8224 19.1718 36.7715C19.1718 36.7207 19.2044 36.6603 19.2698 36.5904L20.0446 35.7993C20.104 35.7549 20.1545 35.7326 20.196 35.7326C20.2435 35.7326 20.3059 35.7707 20.383 35.847ZM26.8156 34.5889C26.8156 34.8557 26.8571 35.1036 26.9403 35.3323C27.0234 35.5611 27.1392 35.7612 27.2876 35.9328C27.436 36.098 27.6142 36.2314 27.822 36.3331C28.0298 36.4284 28.2554 36.4761 28.4989 36.4761C28.7423 36.4761 28.9679 36.4284 29.1757 36.3331C29.3836 36.2314 29.5617 36.098 29.7101 35.9328C29.8585 35.7612 29.9743 35.5611 30.0574 35.3323C30.1406 35.1036 30.1821 34.8557 30.1821 34.5889C30.1821 34.3284 30.1406 34.0837 30.0574 33.855C29.9743 33.6262 29.8585 33.4261 29.7101 33.2545C29.5617 33.0829 29.3836 32.9495 29.1757 32.8542C28.9679 32.7525 28.7423 32.7017 28.4989 32.7017C28.2554 32.7017 28.0298 32.7525 27.822 32.8542C27.6142 32.9495 27.436 33.0829 27.2876 33.2545C27.1392 33.4261 27.0234 33.6262 26.9403 33.855C26.8571 34.0837 26.8156 34.3284 26.8156 34.5889ZM25.0967 34.5984C25.0967 34.0901 25.1857 33.6167 25.3639 33.1782C25.542 32.7335 25.7824 32.3459 26.0853 32.0154C26.394 31.685 26.7562 31.4245 27.1718 31.2339C27.5874 31.0432 28.0298 30.9479 28.4989 30.9479C28.9679 30.9479 29.4073 31.0432 29.817 31.2339C30.2326 31.4245 30.5948 31.685 30.9035 32.0154C31.2123 32.3459 31.4557 32.7335 31.6339 33.1782C31.812 33.6167 31.901 34.0901 31.901 34.5984C31.901 35.1004 31.812 35.5738 31.6339 36.0186C31.4557 36.457 31.2123 36.8414 30.9035 37.1718C30.5948 37.4959 30.2326 37.7532 29.817 37.9439C29.4073 38.1345 28.9679 38.2298 28.4989 38.2298C28.0298 38.2298 27.5874 38.1345 27.1718 37.9439C26.7562 37.7532 26.394 37.4959 26.0853 37.1718C25.7824 36.8414 25.542 36.457 25.3639 36.0186C25.1857 35.5738 25.0967 35.1004 25.0967 34.5984ZM36.9915 37.9153L34.6492 33.7978V37.9153C34.6492 38.0551 34.5779 38.125 34.4354 38.125H33.1885C33.0638 38.125 33.0015 38.0551 33.0015 37.9153V31.2625C33.0015 31.2053 33.0164 31.1576 33.046 31.1195C33.0757 31.075 33.1232 31.0528 33.1885 31.0528H34.6313C34.762 31.0528 34.8689 31.1227 34.952 31.2625L37.1785 35.1226V31.2625C37.1785 31.2053 37.1963 31.1576 37.232 31.1195C37.2676 31.075 37.3181 31.0528 37.3834 31.0528H38.6213C38.6689 31.0528 38.7164 31.0718 38.7638 31.11C38.8114 31.1481 38.8351 31.1989 38.8351 31.2625V37.9153C38.8351 38.0551 38.7638 38.125 38.6213 38.125H37.3121C37.1756 38.125 37.0687 38.0551 36.9915 37.9153Z" stroke="#081030" stroke-width="0.5"/>
</svg>
