<svg width="37" height="35" viewBox="0 0 37 35" fill="none" xmlns="http://www.w3.org/2000/svg">
<rect width="37" height="35" fill="#FDDBC0"/>
<path fill-rule="evenodd" clip-rule="evenodd" d="M13.5027 15.358C12.7394 16.1213 11.2986 17.5621 10.6463 18.2143C9.79417 19.0665 9.31559 20.2215 9.31559 21.4271C9.31559 22.6316 9.79417 23.7877 10.6463 24.6398C10.8836 24.8761 11.1239 25.1164 11.3602 25.3537C12.2123 26.2058 13.3684 26.6844 14.5729 26.6844C15.7785 26.6844 16.9335 26.2058 17.7857 25.3537C18.4379 24.7014 19.8787 23.2606 20.642 22.4973C20.8389 22.3004 20.8389 21.9804 20.642 21.7835C20.4451 21.5866 20.1251 21.5866 19.9282 21.7835C19.1649 22.5468 17.7241 23.9876 17.0718 24.6398C16.4095 25.3022 15.5109 25.6747 14.5729 25.6747C13.6359 25.6747 12.7373 25.3022 12.075 24.6398C11.8377 24.4026 11.5974 24.1623 11.3602 23.925C10.6978 23.2627 10.3253 22.3641 10.3253 21.4271C10.3253 20.4891 10.6978 19.5905 11.3602 18.9282C12.0124 18.2759 13.4532 16.8351 14.2165 16.0718C14.4134 15.8749 14.4134 15.5549 14.2165 15.358C14.0196 15.1611 13.6996 15.1611 13.5027 15.358ZM23.4973 19.642C24.2606 18.8787 25.7014 17.4379 26.3537 16.7857C27.2058 15.9335 27.6844 14.7785 27.6844 13.5729C27.6844 12.3684 27.2058 11.2123 26.3537 10.3602C26.1164 10.1239 25.8761 9.8836 25.6398 9.64633C24.7877 8.79417 23.6316 8.31559 22.4271 8.31559C21.2215 8.31559 20.0665 8.79417 19.2143 9.64633C18.5621 10.2986 17.1213 11.7394 16.358 12.5027C16.1611 12.6996 16.1611 13.0196 16.358 13.2165C16.5549 13.4134 16.8749 13.4134 17.0718 13.2165C17.8351 12.4532 19.2759 11.0124 19.9282 10.3602C20.5905 9.69782 21.4891 9.32526 22.4271 9.32526C23.3641 9.32526 24.2627 9.69782 24.925 10.3602C25.1623 10.5974 25.4026 10.8377 25.6398 11.075C26.3022 11.7373 26.6747 12.6359 26.6747 13.5729C26.6747 14.5109 26.3022 15.4095 25.6398 16.0718C24.9876 16.7241 23.5468 18.1649 22.7835 18.9282C22.5866 19.1251 22.5866 19.4451 22.7835 19.642C22.9804 19.8389 23.3004 19.8389 23.4973 19.642ZM16.149 10.3602V7.50483C16.149 7.22616 15.9228 7 15.6442 7C15.3655 7 15.1393 7.22616 15.1393 7.50483V10.3602C15.1393 10.6388 15.3655 10.865 15.6442 10.865C15.9228 10.865 16.149 10.6388 16.149 10.3602ZM25.6398 20.8607H28.4952C28.7738 20.8607 29 20.6345 29 20.3558C29 20.0772 28.7738 19.851 28.4952 19.851H25.6398C25.3612 19.851 25.135 20.0772 25.135 20.3558C25.135 20.6345 25.3612 20.8607 25.6398 20.8607ZM11.3602 14.1393H8.50483C8.22616 14.1393 8 14.3655 8 14.6442C8 14.9228 8.22616 15.149 8.50483 15.149H11.3602C11.6388 15.149 11.865 14.9228 11.865 14.6442C11.865 14.3655 11.6388 14.1393 11.3602 14.1393ZM20.851 24.6398V27.4952C20.851 27.7738 21.0772 28 21.3558 28C21.6345 28 21.8607 27.7738 21.8607 27.4952V24.6398C21.8607 24.3612 21.6345 24.135 21.3558 24.135C21.0772 24.135 20.851 24.3612 20.851 24.6398ZM13.8591 12.1452L11.7176 10.0038C11.5207 9.80687 11.2006 9.80687 11.0038 10.0038C10.8069 10.2006 10.8069 10.5207 11.0038 10.7176L13.1452 12.8591C13.3421 13.056 13.6622 13.056 13.8591 12.8591C14.056 12.6622 14.056 12.3421 13.8591 12.1452ZM23.1409 22.8548L25.2824 24.9962C25.4793 25.1931 25.7994 25.1931 25.9962 24.9962C26.1931 24.7994 26.1931 24.4793 25.9962 24.2824L23.8548 22.1409C23.6579 21.944 23.3378 21.944 23.1409 22.1409C22.944 22.3378 22.944 22.6579 23.1409 22.8548Z" fill="#081030"/>
</svg>
