<svg width="192" height="192" viewBox="0 0 192 192" fill="none" xmlns="http://www.w3.org/2000/svg">
<rect width="192" height="192" fill="#96D9F3"/>
<path fill-rule="evenodd" clip-rule="evenodd" d="M109.536 21.12V48.672H137.664L109.536 21.12Z" fill="#112953"/>
<path fill-rule="evenodd" clip-rule="evenodd" d="M142.656 83.328L113.376 112.704L127.392 126.72L140.448 113.664L167.52 86.592L153.504 72.576L142.752 83.328H142.656Z" fill="#112953"/>
<path fill-rule="evenodd" clip-rule="evenodd" d="M155.712 70.272L169.728 84.288L173.664 80.448L159.648 66.336L155.712 70.272Z" fill="#112953"/>
<path fill-rule="evenodd" clip-rule="evenodd" d="M124.128 127.968L112.128 115.968L109.248 130.848L124.128 127.968Z" fill="#112953"/>
<path fill-rule="evenodd" clip-rule="evenodd" d="M51.936 62.4H117.024C117.888 62.4 118.56 63.072 118.56 64.032C118.56 64.896 117.888 65.568 117.024 65.568H51.936C51.072 65.568 50.4 64.896 50.4 64.032C50.4 63.072 51.072 62.4 51.936 62.4ZM51.936 79.2H84.48C85.344 79.2 86.112 79.872 86.112 80.832C86.112 81.696 85.344 82.368 84.48 82.368H51.936C51.072 82.368 50.4 81.696 50.4 80.832C50.4 79.872 51.072 79.2 51.936 79.2ZM51.936 96H98.112C99.072 96 99.744 96.672 99.744 97.632C99.744 98.496 99.072 99.168 98.112 99.168H51.936C51.072 99.168 50.4 98.496 50.4 97.632C50.4 96.672 51.072 96 51.936 96ZM51.936 112.8H102.24C103.104 112.8 103.872 113.472 103.872 114.432C103.872 115.296 103.104 115.968 102.24 115.968H51.936C51.072 115.968 50.4 115.296 50.4 114.432C50.4 113.472 51.072 112.8 51.936 112.8ZM51.936 129.6H93.408C94.272 129.6 94.944 130.272 94.944 131.232C94.944 132.096 94.272 132.768 93.408 132.768H51.936C51.072 132.768 50.4 132.096 50.4 131.232C50.4 130.272 51.072 129.6 51.936 129.6ZM28.896 176.352H139.968V118.656L128.544 130.08V130.176H128.448L128.352 130.272H128.256V130.368H128.16H128.064V130.464H127.968H127.872L127.776 130.56H127.68L107.52 134.4C107.424 134.4 107.328 134.4 107.232 134.4C106.848 134.4 106.368 134.304 106.08 134.016C105.696 133.632 105.6 133.056 105.696 132.576L109.536 112.416V112.32V112.224L109.632 112.128V112.032V111.936C109.728 111.84 109.824 111.744 109.92 111.648V111.552H110.016L139.968 81.504V51.936H108C107.04 51.936 106.368 51.168 106.368 50.304V18.912H28.896V34.56H40.608C41.472 34.56 42.24 35.232 42.24 36.096C42.24 36.96 41.472 37.728 40.608 37.728H28.896V59.136H40.608C41.472 59.136 42.24 59.808 42.24 60.672C42.24 61.632 41.472 62.304 40.608 62.304H28.896V83.712H40.608C41.472 83.712 42.24 84.384 42.24 85.344C42.24 86.208 41.472 86.88 40.608 86.88H28.896V108.288H40.608C41.472 108.288 42.24 109.056 42.24 109.92C42.24 110.784 41.472 111.456 40.608 111.456H28.896V132.864H40.608C41.472 132.864 42.24 133.632 42.24 134.496C42.24 135.36 41.472 136.128 40.608 136.128H28.896V157.44H40.608C41.472 157.44 42.24 158.208 42.24 159.072C42.24 159.936 41.472 160.704 40.608 160.704H28.896V176.352Z" fill="#112953"/>
<path fill-rule="evenodd" clip-rule="evenodd" d="M139.968 177.888H25.728C24.864 177.888 24.096 177.216 24.096 176.352V159.072H17.664C16.704 159.072 16.032 158.4 16.032 157.44C16.032 156.576 16.704 155.904 17.664 155.904H24.096V134.496H17.664C16.704 134.496 16.032 133.728 16.032 132.864C16.032 132 16.704 131.328 17.664 131.328H24.096V109.92H17.664C16.704 109.92 16.032 109.152 16.032 108.288C16.032 107.424 16.704 106.656 17.664 106.656H24.096V85.344H17.664C16.704 85.344 16.032 84.576 16.032 83.712C16.032 82.848 16.704 82.08 17.664 82.08H24.096V60.672H17.664C16.704 60.672 16.032 60 16.032 59.136C16.032 58.272 16.704 57.504 17.664 57.504H24.096V36.096H17.664C16.704 36.096 16.032 35.424 16.032 34.56C16.032 33.6 16.704 32.928 17.664 32.928H24.096V15.648C24.096 14.784 24.864 14.112 25.728 14.112H106.368H106.464H106.56H106.656C106.848 14.112 106.944 14.208 107.136 14.304H107.232V14.4H107.328L107.424 14.496H107.52V14.592L141.12 47.52V47.616H141.216V47.712H141.312C141.312 47.808 141.312 47.808 141.312 47.808V47.904H141.408C141.408 48 141.408 48 141.504 48.096C141.504 48.192 141.504 48.192 141.504 48.288L141.6 48.384V48.48V48.576V48.672V76.704L150.72 67.584L156.96 61.344C157.248 61.056 157.632 60.864 158.112 60.864C158.496 60.864 158.88 61.056 159.168 61.344L175.488 77.664C176.16 78.336 176.16 79.296 175.488 79.968L169.344 86.112H169.248L141.6 113.856V176.352C141.6 177.216 140.928 177.888 139.968 177.888ZM91.776 131.232H50.4C49.44 131.232 48.768 130.464 48.768 129.6C48.768 128.736 49.44 127.968 50.4 127.968H91.776C92.64 127.968 93.408 128.736 93.408 129.6C93.408 130.464 92.64 131.232 91.776 131.232ZM100.608 114.432H50.4C49.44 114.432 48.768 113.664 48.768 112.8C48.768 111.936 49.44 111.168 50.4 111.168H100.608C101.568 111.168 102.24 111.936 102.24 112.8C102.24 113.664 101.568 114.432 100.608 114.432ZM96.576 97.632H50.4C49.44 97.632 48.768 96.864 48.768 96C48.768 95.136 49.44 94.368 50.4 94.368H96.576C97.44 94.368 98.112 95.136 98.112 96C98.112 96.864 97.44 97.632 96.576 97.632ZM82.848 80.832H50.4C49.44 80.832 48.768 80.064 48.768 79.2C48.768 78.336 49.44 77.568 50.4 77.568H82.848C83.712 77.568 84.48 78.336 84.48 79.2C84.48 80.064 83.712 80.832 82.848 80.832ZM115.392 64.032H50.4C49.44 64.032 48.768 63.264 48.768 62.4C48.768 61.536 49.44 60.768 50.4 60.768H115.392C116.256 60.768 117.024 61.536 117.024 62.4C117.024 63.264 116.256 64.032 115.392 64.032ZM38.976 159.072H27.36V174.72H138.432V117.024L127.008 128.448L126.912 128.544H126.816V128.64H126.72V128.736H126.624H126.528V128.832H126.432H126.336V128.928H126.24H126.144L105.984 132.768C105.792 132.864 105.696 132.864 105.6 132.864C105.216 132.864 104.832 132.672 104.544 132.384C104.16 132 103.968 131.424 104.064 130.944L107.904 110.784V110.688H108V110.592V110.496V110.4H108.096C108.096 110.208 108.192 110.112 108.288 110.016H108.384V109.92L138.432 79.872V50.304H106.368C105.504 50.304 104.736 49.632 104.736 48.672V17.28H27.36V32.928H38.976C39.84 32.928 40.608 33.6 40.608 34.56C40.608 35.424 39.84 36.096 38.976 36.096H27.36V57.504H38.976C39.84 57.504 40.608 58.272 40.608 59.136C40.608 60 39.84 60.672 38.976 60.672H27.36V82.08H38.976C39.84 82.08 40.608 82.848 40.608 83.712C40.608 84.576 39.84 85.344 38.976 85.344H27.36V106.656H38.976C39.84 106.656 40.608 107.424 40.608 108.288C40.608 109.152 39.84 109.92 38.976 109.92H27.36V131.328H38.976C39.84 131.328 40.608 132 40.608 132.864C40.608 133.728 39.84 134.496 38.976 134.496H27.36V155.904H38.976C39.84 155.904 40.608 156.576 40.608 157.44C40.608 158.4 39.84 159.072 38.976 159.072ZM165.888 84.96L151.872 70.944L141.12 81.696L111.744 111.072L125.76 125.088L138.912 112.032L165.888 84.96ZM154.176 68.736L168.192 82.752L172.128 78.816L158.112 64.8L154.176 68.736ZM110.496 114.336L107.616 129.216L122.496 126.336L110.496 114.336ZM136.128 47.136L108 19.488V47.136H136.128Z" fill="#8FDAF2"/>
</svg>
