<svg width="48" height="42" viewBox="0 0 48 42" fill="none" xmlns="http://www.w3.org/2000/svg">
<rect width="48" height="42" fill="#9AF4E6"/>
<path d="M16.6729 28.2667C16.6729 28.0394 16.565 27.8214 16.3731 27.6607C16.1812 27.5 15.9209 27.4097 15.6494 27.4097H14.4929C14.2215 27.4097 13.9612 27.5 13.7692 27.6607C13.5773 27.8214 13.4695 28.0394 13.4695 28.2667C13.4695 28.494 13.5773 28.712 13.7692 28.8728C13.9612 29.0335 14.2215 29.1238 14.4929 29.1238H15.6494C15.9209 29.1238 16.1812 29.0335 16.3731 28.8728C16.565 28.712 16.6729 28.494 16.6729 28.2667Z" fill="#081030"/>
<path d="M35.4531 24.5042H27.3678L35.4531 17.6991C35.6434 17.5399 35.7943 17.3509 35.8974 17.1428C36.0004 16.9347 36.0534 16.7117 36.0534 16.4864C36.0534 16.2611 36.0004 16.0381 35.8974 15.83C35.7943 15.6219 35.6434 15.4329 35.4531 15.2737L31.1648 11.6912C30.9747 11.5318 30.749 11.4054 30.5005 11.3191C30.252 11.2328 29.9856 11.1884 29.7167 11.1884C29.4477 11.1884 29.1813 11.2328 28.9328 11.3191C28.6843 11.4054 28.4586 11.5318 28.2685 11.6912L20.1014 18.4962V10.7141C20.1014 10.2595 19.8857 9.82351 19.5019 9.50205C19.118 9.18059 18.5974 9 18.0545 9H12.0469C11.504 9 10.9834 9.18059 10.5995 9.50205C10.2157 9.82351 10 10.2595 10 10.7141V28.7123C10 29.8489 10.5391 30.9388 11.4988 31.7425C11.974 32.1404 12.5381 32.4561 13.1589 32.6714C13.7798 32.8868 14.4452 32.9976 15.1172 32.9976C15.2503 32.9976 15.3731 32.9976 15.4959 32.9976C15.5607 33.0008 15.6256 33.0008 15.6903 32.9976H35.4531C35.9959 32.9976 36.5166 32.817 36.9004 32.4956C37.2843 32.1741 37.4999 31.7381 37.4999 31.2835V26.2183C37.4999 25.7637 37.2843 25.3277 36.9004 25.0062C36.5166 24.6848 35.9959 24.5042 35.4531 24.5042ZM21.5342 19.7561L25.8429 23.3557L24.4817 24.5042H20.1014V20.9217L21.5342 19.7561ZM25.628 16.3278L29.9162 19.9275L27.2655 22.1387L22.967 18.5391L25.628 16.3278ZM18.0545 18.6848H12.0469V15.5565H18.0545V18.6848ZM12.006 20.3989H18.0545V23.57H12.0469L12.006 20.3989ZM20.1014 28.7123V26.2183H23.8881V31.2835H19.0779C19.7484 30.5444 20.1082 29.6404 20.1014 28.7123ZM25.8941 26.184H29.6297V31.2835H25.935L25.8941 26.184ZM29.7115 12.8996L33.9998 16.4907L31.3593 18.7105L27.071 15.1194L29.7115 12.8996ZM18.0545 10.7141V13.8424H12.0469V10.7141H18.0545ZM12.0469 28.7123V25.2841H18.0545V28.7123C18.1318 29.0819 18.1116 29.4612 17.9953 29.8235C17.879 30.1859 17.6693 30.5225 17.3811 30.8098C17.0929 31.0971 16.7332 31.3281 16.327 31.4866C15.9209 31.645 15.4783 31.7272 15.0302 31.7272C14.5822 31.7272 14.1395 31.645 13.7334 31.4866C13.3273 31.3281 12.9675 31.0971 12.6793 30.8098C12.3911 30.5225 12.1815 30.1859 12.0652 29.8235C11.9489 29.4612 11.9286 29.0819 12.006 28.7123H12.0469ZM35.4531 31.2835H31.7175V26.2183H35.4531V31.2835Z" fill="#081030"/>
</svg>
