<svg width="100" height="100" viewBox="0 0 100 100" fill="none" xmlns="http://www.w3.org/2000/svg">
<rect width="100" height="100" fill="#FCCFD1"/>
<path d="M82 43C82 25.4 67.6 11 50 11C32.4 11 18 25.4 18 43C18 48 19.2 52.8 21.2 57H78.7C80.8 52.8 82 48 82 43ZM76 44C75.4 44 75 43.6 75 43C75 29.6 64.4 18.6 51.2 18L55 42.8V43C56.2 44.3 57 46 57 47.9C57 51.8 53.9 54.9 50 54.9C46.1 54.9 43 51.8 43 47.9C43 46 43.8 44.3 45 43V42.8L48.8 18C35.6 18.6 25 29.6 25 43C25 43.6 24.6 44 24 44C23.4 44 23 43.6 23 43C23 28.1 35.1 16 50 16C64.9 16 77 28.1 77 43C77 43.6 76.6 44 76 44ZM50 75C61.8 75 72.2 68.6 77.7 59H22.3C27.8 68.6 38.2 75 50 75ZM40 66H60C60.6 66 61 66.4 61 67C61 67.6 60.6 68 60 68H40C39.4 68 39 67.6 39 67C39 66.4 39.4 66 40 66Z" fill="#080F2D"/>
<path d="M50 53C52.7614 53 55 50.7614 55 48C55 45.2386 52.7614 43 50 43C47.2386 43 45 45.2386 45 48C45 50.7614 47.2386 53 50 53Z" fill="#080F2D"/>
<path d="M50 80C70.4 80 87 63.4 87 43C87 22.6 70.4 6 50 6C29.6 6 13 22.6 13 43C13 63.4 29.6 80 50 80ZM50 9C68.7 9 84 24.3 84 43C84 61.7 68.7 77 50 77C31.3 77 16 61.7 16 43C16 24.3 31.3 9 50 9ZM36 88H21V94H79V88H64H36Z" fill="#080F2D"/>
<path d="M37 79.8V86H63V79.8C58.9 81.2 54.6 82 50 82C45.4 82 41.1 81.2 37 79.8Z" fill="#080F2D"/>
</svg>
