<svg width="60" height="60" viewBox="0 0 60 60" fill="none" xmlns="http://www.w3.org/2000/svg">
<rect width="60" height="60" fill="#A8D6E5"/>
<path d="M29.5 11C18.7484 11 10 19.7484 10 30.4999C10 41.2516 18.7484 50 29.5 50C40.2516 50 49 41.2516 49 30.4999C49 19.7484 40.2516 11 29.5 11ZM29.5 48.2273C19.7234 48.2273 11.7727 40.2767 11.7727 30.4999C11.7727 20.7234 19.7234 12.7727 29.5 12.7727C39.2765 12.7727 47.2271 20.7234 47.2271 30.4999C47.2271 40.2767 39.2765 48.2273 29.5 48.2273ZM22.4091 20.75V40.2501C22.4091 40.7374 22.808 41.1363 23.2953 41.1363H25.9544C26.442 41.1363 26.8409 41.5352 26.8409 42.0227C26.8409 42.5103 26.442 42.9092 25.9544 42.9092H23.2953C21.8329 42.9092 20.6363 41.7126 20.6363 40.2501V20.75C20.6363 19.2875 21.8329 18.0909 23.2953 18.0909H25.9544C26.442 18.0909 26.8409 18.4898 26.8409 18.9773C26.8409 19.4648 26.442 19.8636 25.9544 19.8636H23.2953C22.808 19.8636 22.4091 20.2625 22.4091 20.75ZM38.3637 20.75V40.2501C38.3637 41.7126 37.1671 42.9092 35.7046 42.9092H33.0455C32.5579 42.9092 32.159 42.5103 32.159 42.0227C32.159 41.5352 32.5579 41.1363 33.0455 41.1363H35.7046C36.1919 41.1363 36.5908 40.7374 36.5908 40.2501V20.75C36.5908 20.2625 36.1919 19.8636 35.7046 19.8636H33.0455C32.5579 19.8636 32.159 19.4648 32.159 18.9773C32.159 18.4898 32.5579 18.0909 33.0455 18.0909H35.7046C37.1671 18.0909 38.3637 19.2875 38.3637 20.75Z" fill="url(#paint0_radial_39_43)"/>
<defs>
<radialGradient id="paint0_radial_39_43" cx="0" cy="0" r="1" gradientTransform="matrix(38.9996 38.4173 -24.1519 24.5181 10.0007 10.9997)" gradientUnits="userSpaceOnUse">
<stop offset="0.5" stop-color="#081030"/>
</radialGradient>
</defs>
</svg>
