<svg width="59" height="54" viewBox="0 0 59 54" fill="none" xmlns="http://www.w3.org/2000/svg">
<rect width="59" height="54" fill="#CCBAF0"/>
<path d="M30.5 32.6269H27.0329H23.5658V33.9701V35.3134V36.6567C23.5658 37.3986 24.6924 38 26.0822 38H27.0329H30.5H33.9671H34.9178C36.3076 38 37.4342 37.3986 37.4342 36.6567V35.3134V33.9701V32.6269H33.9671H30.5ZM30.5 32.6269H34.75H37.9787C38.5427 32.6269 39 32.3828 39 32.0817V31.3878V30.6939C39 30.3107 38.418 30 37.7001 30H34.75H30.5H26.25H23.2999C22.582 30 22 30.3107 22 30.6939V31.3878V32.0817C22 32.3828 22.4573 32.6269 23.0213 32.6269H26.25H30.5Z" stroke="#081030" stroke-width="6" stroke-linecap="round"/>
<path d="M22 21.5H38V25H22V21.5Z" fill="#081030"/>
<rect x="24" y="17" width="12" height="2" fill="#081030"/>
</svg>
